<svg xmlns="http://www.w3.org/2000/svg" xmlns:xlink="http://www.w3.org/1999/xlink" width="2000" zoomAndPan="magnify" viewBox="0 0 1500 1499.999933" height="2000" preserveAspectRatio="xMidYMid meet" version="1.0"><defs><clipPath id="11a252dd29"><path d="M 305 25.351562 L 1194 25.351562 L 1194 967 L 305 967 Z M 305 25.351562 " clip-rule="nonzero"/></clipPath><clipPath id="5118a3f7bb"><path d="M 217.644531 579 L 1282.644531 579 L 1282.644531 1500 L 217.644531 1500 Z M 217.644531 579 " clip-rule="nonzero"/></clipPath></defs><rect x="-150" width="1800" fill="#ffffff" y="-149.999993" height="1799.99992" fill-opacity="1"/><rect x="-150" width="1800" fill="#ffffff" y="-149.999993" height="1799.99992" fill-opacity="1"/><path fill="#cccccf" d="M 750.902344 32.886719 C 569.722656 34.171875 387.992188 136.550781 391.046875 336.238281 L 391.046875 880.953125 L 551.628906 880.953125 L 551.628906 426.515625 C 541.65625 189.609375 944.832031 157.59375 946.832031 426.515625 L 946.832031 880.953125 L 1107.65625 880.953125 L 1107.65625 336.238281 C 1112.800781 131.410156 932.058594 31.601562 750.882812 32.886719 Z M 750.902344 32.886719 " fill-opacity="1" fill-rule="nonzero"/><g clip-path="url(#11a252dd29)"><path stroke-linecap="butt" transform="matrix(3.281872, 0, 0, 3.280434, -423.48281, -679.590321)" fill="none" stroke-linejoin="miter" d="M 357.839993 217.189843 C 302.633796 217.581607 247.259774 248.790555 248.19055 309.662827 L 248.19055 475.712433 L 297.120556 475.712433 L 297.120556 337.182763 C 294.081847 264.964813 416.931168 255.205244 417.540576 337.182763 L 417.540576 475.712433 L 466.544378 475.712433 L 466.544378 309.662827 C 468.111938 247.223498 413.039049 216.798079 357.834042 217.189843 Z M 357.839993 217.189843 " stroke="#000000" stroke-width="4.598" stroke-opacity="1" stroke-miterlimit="4"/></g><path fill="#f0a513" d="M 317.007812 664.730469 L 1181.78125 664.730469 C 1232.453125 664.730469 1273.25 705.511719 1273.25 756.160156 L 1273.25 1148.074219 C 1276.042969 1517.1875 225.25 1534.34375 225.542969 1148.074219 L 225.542969 756.160156 C 225.542969 705.507812 266.339844 664.730469 317.011719 664.730469 Z M 317.007812 664.730469 " fill-opacity="1" fill-rule="nonzero"/><g clip-path="url(#5118a3f7bb)"><path stroke-linecap="butt" transform="matrix(3.281872, 0, 0, 3.280434, -423.48281, -679.590321)" fill="none" stroke-linejoin="miter" d="M 225.630543 409.799621 L 489.130571 409.799621 C 504.5705 409.799621 517.001476 422.231283 517.001476 437.670834 L 517.001476 557.141005 C 517.852505 669.660639 197.671559 674.89051 197.760828 557.141005 L 197.760828 437.670834 C 197.760828 422.230092 210.191804 409.799621 225.631733 409.799621 Z M 225.630543 409.799621 " stroke="#000000" stroke-width="4.598" stroke-opacity="1" stroke-miterlimit="4"/></g><path fill="#333333" d="M 819.976562 936.054688 C 819.976562 974.976562 788.410156 1006.53125 749.46875 1006.53125 C 710.527344 1006.53125 678.960938 974.976562 678.960938 936.054688 C 678.960938 897.128906 710.527344 865.574219 749.46875 865.574219 C 788.410156 865.574219 819.976562 897.128906 819.976562 936.054688 Z M 819.976562 936.054688 " fill-opacity="1" fill-rule="nonzero"/><path fill="#333333" d="M 688.582031 962.71875 L 805.988281 962.71875 L 846.675781 1207.238281 L 652.246094 1209.140625 Z M 688.582031 962.71875 " fill-opacity="1" fill-rule="nonzero"/></svg>